<?xml version="1.0" encoding="UTF-8"?><svg id="Layer_1" xmlns="http://www.w3.org/2000/svg" viewBox="0 0 830.81 821.69"><defs><style>.cls-1{font-family:Lunatique-Variable, Lunatique;font-size:544.92px;font-variation-settings:'wdth' 100;}.cls-1,.cls-2{fill:#d2fcff;}</style></defs><path class="cls-2" d="M789.88,482.86l-257.96,10.42c-17.44.7-31.61,14.55-32.41,31.99-.99,21.72-4.04,42.51-9.17,62.36-7.48,29.04-18.14,52.29-32.01,69.76-13.85,17.49-29.03,26.55-45.53,27.22-16.5.67-32.36-7.34-47.6-24.05-15.23-16.69-27.94-39.19-38.14-67.52-4.73-13.16-8.49-26.75-11.31-40.76l-1.1-23.33c-.7-14.86-14.75-26.7-32.32-27.01-25.97-.45-50.78-3.1-74.41-7.97-32.91-6.75-59.25-16.63-79.04-29.67-19.81-13.02-30.07-27.45-30.82-43.26-.74-15.81,8.34-31.13,27.29-45.99,18.92-14.85,44.44-27.36,76.55-37.56,22.93-7.27,46.98-12.39,72.16-15.35,17.38-2.04,30.16-15.1,29.46-29.9l-11.4-242.21c-.74-15.78-16.47-27.85-35.13-26.98l-170.2,8.01c-18.66.88-33.18,14.38-32.44,30.16l21.2,450.48-43.08,1.74c-18.66.75-33.18,16.49-32.43,35.16l5.74,142.2c.75,18.66,16.5,33.18,35.16,32.43l44.48-1.8,3.45,73.24c.74,15.78,16.47,27.85,35.13,26.98l170.2-8.01c18.66-.88,33.18-14.38,32.44-30.16l-3.37-71.65,475.09-19.18c18.66-.75,33.18-16.5,32.43-35.16l-5.74-142.2c-.75-18.66-16.5-33.18-35.16-32.43Z"/><text class="cls-1" transform="translate(516.44 477.76) rotate(-2.69) scale(.71 1)"><tspan x="0" y="0">F</tspan></text><text class="cls-1" transform="translate(659.29 470.19) rotate(-2.69) scale(.71 1)"><tspan x="0" y="0">P</tspan></text></svg>